# MagicaVoxel @ Ephtracy

# group
o 

# material
mtllib car-1.mtl
usemtl palette

# normals
vn -1 0 0
vn 1 0 0
vn 0 0 1
vn 0 0 -1
vn 0 -1 0
vn 0 1 0

# texcoords
vt 0.427734 0.5
vt 0.994141 0.5

# verts
v 0.2 0.2 0.2
v 0.2 0.2 0.1
v 0.2 0.2 0
v 0.2 0.3 0.4
v 0.2 0.3 0.2
v 0.2 0.3 0.1
v 0.2 0.4 0.4
v 0.2 0.4 0.2
v 0.2 0.5 0.4
v 0.2 0.5 0.3
v 0.2 0.6 0.3
v 0.2 0.6 0
v 0.3 0.5 0.4
v 0.3 0.5 0.3
v 0.3 0.6 0.4
v 0.3 0.6 0.3
v 0.9 0.2 0.1
v 0.9 0.2 0
v 0.9 0.3 0.1
v 0.9 0.3 0
v 1 0.2 0.2
v 1 0.2 0.1
v 1 0.4 0.2
v 1 0.4 0.1
v 1.1 0.3 0.4
v 1.1 0.3 0.2
v 1.1 0.4 0.4
v 1.1 0.4 0.3
v 1.1 0.4 0.2
v 1.1 0.5 0.4
v 1.1 0.5 0.3
v 0.3 0.3 0.4
v 0.3 0.3 0.2
v 0.3 0.4 0.4
v 0.3 0.4 0.3
v 0.3 0.4 0.2
v 0.3 0.5 0.4
v 0.3 0.5 0.3
v 0.4 0.2 0.2
v 0.4 0.2 0.1
v 0.4 0.4 0.2
v 0.4 0.4 0.1
v 0.5 0.2 0.1
v 0.5 0.2 0
v 0.5 0.3 0.1
v 0.5 0.3 0
v 1.1 0.5 0.4
v 1.1 0.5 0.3
v 1.1 0.6 0.4
v 1.1 0.6 0.3
v 1.2 0.2 0.2
v 1.2 0.2 0.1
v 1.2 0.2 0
v 1.2 0.3 0.4
v 1.2 0.3 0.2
v 1.2 0.3 0.1
v 1.2 0.4 0.4
v 1.2 0.4 0.2
v 1.2 0.5 0.4
v 1.2 0.5 0.3
v 1.2 0.6 0.3
v 1.2 0.6 0
v 0.2 0.3 0.4
v 0.2 0.4 0.4
v 0.2 0.5 0.4
v 0.3 0.3 0.4
v 0.3 0.4 0.4
v 0.3 0.5 0.4
v 0.3 0.6 0.4
v 1.1 0.3 0.4
v 1.1 0.4 0.4
v 1.1 0.5 0.4
v 1.1 0.6 0.4
v 1.2 0.3 0.4
v 1.2 0.4 0.4
v 1.2 0.5 0.4
v 0.2 0.5 0.3
v 0.2 0.6 0.3
v 0.3 0.4 0.3
v 0.3 0.5 0.3
v 0.3 0.6 0.3
v 0.4 0.4 0.3
v 0.4 0.5 0.3
v 1 0.4 0.3
v 1 0.5 0.3
v 1.1 0.4 0.3
v 1.1 0.5 0.3
v 1.1 0.6 0.3
v 1.2 0.5 0.3
v 1.2 0.6 0.3
v 0.2 0.2 0.2
v 0.2 0.3 0.2
v 0.3 0.3 0.2
v 0.3 0.4 0.2
v 0.4 0.2 0.2
v 0.4 0.4 0.2
v 1 0.2 0.2
v 1 0.4 0.2
v 1.1 0.3 0.2
v 1.1 0.4 0.2
v 1.2 0.2 0.2
v 1.2 0.3 0.2
v 0.4 0.2 0.1
v 0.4 0.4 0.1
v 0.5 0.2 0.1
v 0.5 0.3 0.1
v 0.9 0.2 0.1
v 0.9 0.3 0.1
v 1 0.2 0.1
v 1 0.4 0.1
v 0.2 0.2 0
v 0.2 0.6 0
v 0.4 0.2 0
v 0.4 0.4 0
v 0.5 0.2 0
v 0.5 0.3 0
v 0.9 0.2 0
v 0.9 0.3 0
v 1 0.2 0
v 1 0.4 0
v 1.2 0.2 0
v 1.2 0.6 0
v 0.2 0.2 0.2
v 0.4 0.2 0.2
v 1 0.2 0.2
v 1.2 0.2 0.2
v 0.2 0.2 0.1
v 0.4 0.2 0.1
v 0.5 0.2 0.1
v 0.9 0.2 0.1
v 1 0.2 0.1
v 1.2 0.2 0.1
v 0.2 0.2 0
v 0.4 0.2 0
v 0.5 0.2 0
v 0.9 0.2 0
v 1 0.2 0
v 1.2 0.2 0
v 0.2 0.3 0.4
v 0.3 0.3 0.4
v 1.1 0.3 0.4
v 1.2 0.3 0.4
v 0.2 0.3 0.2
v 0.3 0.3 0.2
v 1.1 0.3 0.2
v 1.2 0.3 0.2
v 0.5 0.3 0.1
v 0.9 0.3 0.1
v 0.5 0.3 0
v 0.9 0.3 0
v 0.3 0.4 0.3
v 0.4 0.4 0.3
v 1 0.4 0.3
v 1.1 0.4 0.3
v 0.3 0.4 0.2
v 0.4 0.4 0.2
v 1 0.4 0.2
v 1.1 0.4 0.2
v 0.4 0.4 0.1
v 1 0.4 0.1
v 0.3 0.5 0.4
v 1.1 0.5 0.4
v 0.3 0.5 0.3
v 0.4 0.5 0.3
v 1 0.5 0.3
v 1.1 0.5 0.3
v 0.2 0.5 0.4
v 0.3 0.5 0.4
v 1.1 0.5 0.4
v 1.2 0.5 0.4
v 0.2 0.5 0.3
v 0.3 0.5 0.3
v 1.1 0.5 0.3
v 1.2 0.5 0.3
v 0.3 0.6 0.4
v 1.1 0.6 0.4
v 0.2 0.6 0.3
v 0.3 0.6 0.3
v 1.1 0.6 0.3
v 1.2 0.6 0.3
v 0.2 0.6 0
v 1.2 0.6 0

# faces
f 5/2/1 2/2/1 1/2/1
f 6/1/1 3/1/1 2/1/1
f 6/2/1 2/2/1 5/2/1
f 7/2/1 5/2/1 4/2/1
f 8/1/1 6/1/1 5/1/1
f 8/2/1 5/2/1 7/2/1
f 9/1/1 8/1/1 7/1/1
f 10/1/1 8/1/1 9/1/1
f 11/1/1 8/1/1 10/1/1
f 12/1/1 3/1/1 6/1/1
f 12/1/1 8/1/1 11/1/1
f 12/1/1 6/1/1 8/1/1
f 15/1/1 14/1/1 13/1/1
f 16/1/1 14/1/1 15/1/1
f 19/2/1 18/2/1 17/2/1
f 20/2/1 18/2/1 19/2/1
f 23/2/1 22/2/1 21/2/1
f 24/2/1 22/2/1 23/2/1
f 27/2/1 26/2/1 25/2/1
f 28/2/1 26/2/1 27/2/1
f 29/2/1 26/2/1 28/2/1
f 30/1/1 28/1/1 27/1/1
f 31/1/1 28/1/1 30/1/1
f 32/2/2 33/2/2 34/2/2
f 34/2/2 33/2/2 35/2/2
f 35/2/2 33/2/2 36/2/2
f 34/1/2 35/1/2 37/1/2
f 37/1/2 35/1/2 38/1/2
f 39/2/2 40/2/2 41/2/2
f 41/2/2 40/2/2 42/2/2
f 43/2/2 44/2/2 45/2/2
f 45/2/2 44/2/2 46/2/2
f 47/1/2 48/1/2 49/1/2
f 49/1/2 48/1/2 50/1/2
f 51/2/2 52/2/2 55/2/2
f 52/1/2 53/1/2 56/1/2
f 55/2/2 52/2/2 56/2/2
f 54/2/2 55/2/2 57/2/2
f 55/1/2 56/1/2 58/1/2
f 57/2/2 55/2/2 58/2/2
f 57/1/2 58/1/2 59/1/2
f 59/1/2 58/1/2 60/1/2
f 60/1/2 58/1/2 61/1/2
f 56/1/2 53/1/2 62/1/2
f 61/1/2 58/1/2 62/1/2
f 58/1/2 56/1/2 62/1/2
f 66/2/3 64/2/3 63/2/3
f 67/1/3 65/1/3 64/1/3
f 67/2/3 64/2/3 66/2/3
f 68/1/3 65/1/3 67/1/3
f 72/1/3 69/1/3 68/1/3
f 73/1/3 69/1/3 72/1/3
f 74/2/3 71/2/3 70/2/3
f 75/1/3 72/1/3 71/1/3
f 75/2/3 71/2/3 74/2/3
f 76/1/3 72/1/3 75/1/3
f 80/1/3 78/1/3 77/1/3
f 81/1/3 78/1/3 80/1/3
f 82/1/3 80/1/3 79/1/3
f 83/1/3 80/1/3 82/1/3
f 84/2/3 83/2/3 82/2/3
f 85/2/3 83/2/3 84/2/3
f 86/1/3 85/1/3 84/1/3
f 87/1/3 85/1/3 86/1/3
f 89/1/3 88/1/3 87/1/3
f 90/1/3 88/1/3 89/1/3
f 93/2/3 92/2/3 91/2/3
f 95/2/3 93/2/3 91/2/3
f 95/2/3 94/2/3 93/2/3
f 96/2/3 94/2/3 95/2/3
f 99/2/3 98/2/3 97/2/3
f 100/2/3 98/2/3 99/2/3
f 101/2/3 99/2/3 97/2/3
f 102/2/3 99/2/3 101/2/3
f 105/2/3 104/2/3 103/2/3
f 106/2/3 104/2/3 105/2/3
f 108/2/3 104/2/3 106/2/3
f 109/2/3 108/2/3 107/2/3
f 110/2/3 104/2/3 108/2/3
f 110/2/3 108/2/3 109/2/3
f 111/1/4 112/1/4 113/1/4
f 113/1/4 112/1/4 114/1/4
f 113/2/4 114/2/4 115/2/4
f 115/2/4 114/2/4 116/2/4
f 116/2/4 114/2/4 118/2/4
f 117/2/4 118/2/4 119/2/4
f 114/1/4 112/1/4 120/1/4
f 119/2/4 118/2/4 120/2/4
f 118/2/4 114/2/4 120/2/4
f 119/1/4 120/1/4 121/1/4
f 120/1/4 112/1/4 122/1/4
f 121/1/4 120/1/4 122/1/4
f 127/2/5 124/2/5 123/2/5
f 128/2/5 124/2/5 127/2/5
f 131/2/5 126/2/5 125/2/5
f 132/2/5 126/2/5 131/2/5
f 133/1/5 128/1/5 127/1/5
f 134/2/5 129/2/5 128/2/5
f 134/1/5 128/1/5 133/1/5
f 135/2/5 129/2/5 134/2/5
f 136/2/5 131/2/5 130/2/5
f 137/1/5 132/1/5 131/1/5
f 137/2/5 131/2/5 136/2/5
f 138/1/5 132/1/5 137/1/5
f 143/2/5 140/2/5 139/2/5
f 144/2/5 140/2/5 143/2/5
f 145/2/5 142/2/5 141/2/5
f 146/2/5 142/2/5 145/2/5
f 149/2/5 148/2/5 147/2/5
f 150/2/5 148/2/5 149/2/5
f 155/1/5 152/1/5 151/1/5
f 156/2/5 153/2/5 152/2/5
f 156/1/5 152/1/5 155/1/5
f 157/1/5 154/1/5 153/1/5
f 157/2/5 153/2/5 156/2/5
f 158/1/5 154/1/5 157/1/5
f 159/2/5 157/2/5 156/2/5
f 160/2/5 157/2/5 159/2/5
f 163/1/5 162/1/5 161/1/5
f 164/1/5 162/1/5 163/1/5
f 165/1/5 162/1/5 164/1/5
f 166/1/5 162/1/5 165/1/5
f 167/1/6 168/1/6 171/1/6
f 171/1/6 168/1/6 172/1/6
f 169/1/6 170/1/6 173/1/6
f 173/1/6 170/1/6 174/1/6
f 175/1/6 176/1/6 178/1/6
f 178/1/6 176/1/6 179/1/6
f 177/1/6 178/1/6 181/1/6
f 179/1/6 180/1/6 181/1/6
f 178/1/6 179/1/6 181/1/6
f 181/1/6 180/1/6 182/1/6
