# MagicaVoxel @ Ephtracy

# group
o 

# material
mtllib car-4.mtl
usemtl palette

# normals
vn -1 0 0
vn 1 0 0
vn 0 0 1
vn 0 0 -1
vn 0 -1 0
vn 0 1 0

# texcoords
vt 0.427734 0.5
vt 0.689453 0.5
vt 0.693359 0.5
vt 0.912109 0.5
vt 0.974609 0.5

# verts
v 0.2 0.6 -0.6
v 0.2 0.6 -0.8
v 0.2 0.6 -1.1
v 0.2 0.6 -1.3
v 0.2 0.6 -1.5
v 0.2 0.7 -0.6
v 0.2 0.7 -0.8
v 0.2 0.7 -1.1
v 0.2 0.7 -1.3
v 0.2 0.7 -1.5
v 0.3 0.6 -0.4
v 0.3 0.6 -0.6
v 0.3 0.7 -0.4
v 0.3 0.7 -0.6
v 0.3 0.7 -0.7
v 0.3 0.7 -0.8
v 0.3 0.7 -0.9
v 0.3 0.7 -1
v 0.3 0.7 -1.1
v 0.3 0.7 -1.2
v 0.3 0.7 -1.3
v 0.3 0.8 -0.6
v 0.3 0.8 -0.7
v 0.3 0.8 -0.9
v 0.3 0.8 -1
v 0.3 0.8 -1.2
v 0.3 0.8 -1.3
v 0.4 0.6 0
v 0.4 0.6 -0.3
v 0.4 0.6 -0.4
v 0.4 0.6 -1.5
v 0.4 0.6 -1.6
v 0.4 0.7 0
v 0.4 0.7 -0.3
v 0.4 0.7 -0.4
v 0.4 0.7 -0.6
v 0.4 0.7 -1.3
v 0.4 0.7 -1.4
v 0.4 0.7 -1.5
v 0.4 0.7 -1.6
v 0.4 0.8 -0.4
v 0.4 0.8 -0.6
v 0.4 0.8 -0.7
v 0.4 0.8 -0.8
v 0.4 0.8 -0.9
v 0.4 0.8 -1
v 0.4 0.8 -1.1
v 0.4 0.8 -1.2
v 0.4 0.8 -1.3
v 0.4 0.8 -1.4
v 0.4 0.9 -0.7
v 0.4 0.9 -0.8
v 0.4 0.9 -1.1
v 0.4 0.9 -1.2
v 0.5 0.7 0
v 0.5 0.7 -0.3
v 0.5 0.7 -0.4
v 0.5 0.7 -1.4
v 0.5 0.7 -1.5
v 0.5 0.8 0
v 0.5 0.8 -0.3
v 0.5 0.8 -0.4
v 0.5 0.8 -0.6
v 0.5 0.8 -0.7
v 0.5 0.8 -1.2
v 0.5 0.8 -1.3
v 0.5 0.8 -1.4
v 0.5 0.8 -1.5
v 0.5 0.9 -0.3
v 0.5 0.9 -0.7
v 0.5 0.9 -1.2
v 0.5 0.9 -1.3
v 0.6 0.6 -1.6
v 0.6 0.6 -1.7
v 0.6 0.7 -1.6
v 0.6 0.7 -1.7
v 0.8 0.7 -0.1
v 0.8 0.7 -0.2
v 0.8 0.8 -0.1
v 0.8 0.8 -0.2
v 0.6 0.7 -0.1
v 0.6 0.7 -0.2
v 0.6 0.8 -0.1
v 0.6 0.8 -0.2
v 0.8 0.6 -1.6
v 0.8 0.6 -1.7
v 0.8 0.7 -1.6
v 0.8 0.7 -1.7
v 0.9 0.7 0
v 0.9 0.7 -0.3
v 0.9 0.7 -0.4
v 0.9 0.7 -1.4
v 0.9 0.7 -1.5
v 0.9 0.8 0
v 0.9 0.8 -0.3
v 0.9 0.8 -0.4
v 0.9 0.8 -0.6
v 0.9 0.8 -0.7
v 0.9 0.8 -1.2
v 0.9 0.8 -1.3
v 0.9 0.8 -1.4
v 0.9 0.8 -1.5
v 0.9 0.9 -0.3
v 0.9 0.9 -0.7
v 0.9 0.9 -1.2
v 0.9 0.9 -1.3
v 1 0.6 0
v 1 0.6 -0.3
v 1 0.6 -0.4
v 1 0.6 -1.5
v 1 0.6 -1.6
v 1 0.7 0
v 1 0.7 -0.3
v 1 0.7 -0.4
v 1 0.7 -0.6
v 1 0.7 -1.3
v 1 0.7 -1.4
v 1 0.7 -1.5
v 1 0.7 -1.6
v 1 0.8 -0.4
v 1 0.8 -0.6
v 1 0.8 -0.7
v 1 0.8 -0.8
v 1 0.8 -0.9
v 1 0.8 -1
v 1 0.8 -1.1
v 1 0.8 -1.2
v 1 0.8 -1.3
v 1 0.8 -1.4
v 1 0.9 -0.7
v 1 0.9 -0.8
v 1 0.9 -1.1
v 1 0.9 -1.2
v 1.1 0.6 -0.4
v 1.1 0.6 -0.6
v 1.1 0.7 -0.4
v 1.1 0.7 -0.6
v 1.1 0.7 -0.7
v 1.1 0.7 -0.8
v 1.1 0.7 -0.9
v 1.1 0.7 -1
v 1.1 0.7 -1.1
v 1.1 0.7 -1.2
v 1.1 0.7 -1.3
v 1.1 0.8 -0.6
v 1.1 0.8 -0.7
v 1.1 0.8 -0.9
v 1.1 0.8 -1
v 1.1 0.8 -1.2
v 1.1 0.8 -1.3
v 1.2 0.6 -0.6
v 1.2 0.6 -0.8
v 1.2 0.6 -1.1
v 1.2 0.6 -1.3
v 1.2 0.6 -1.5
v 1.2 0.7 -0.6
v 1.2 0.7 -0.8
v 1.2 0.7 -1.1
v 1.2 0.7 -1.3
v 1.2 0.7 -1.5
v 0.4 0.6 0
v 0.4 0.7 0
v 0.5 0.7 0
v 0.5 0.8 0
v 0.9 0.7 0
v 0.9 0.8 0
v 1 0.6 0
v 1 0.7 0
v 0.6 0.7 -0.2
v 0.6 0.8 -0.2
v 0.8 0.7 -0.2
v 0.8 0.8 -0.2
v 0.5 0.8 -0.3
v 0.5 0.9 -0.3
v 0.9 0.8 -0.3
v 0.9 0.9 -0.3
v 0.3 0.6 -0.4
v 0.3 0.7 -0.4
v 0.4 0.6 -0.4
v 0.4 0.7 -0.4
v 0.4 0.8 -0.4
v 0.5 0.7 -0.4
v 0.5 0.8 -0.4
v 0.9 0.7 -0.4
v 0.9 0.8 -0.4
v 1 0.6 -0.4
v 1 0.7 -0.4
v 1 0.8 -0.4
v 1.1 0.6 -0.4
v 1.1 0.7 -0.4
v 0.2 0.6 -0.6
v 0.2 0.7 -0.6
v 0.3 0.6 -0.6
v 0.3 0.7 -0.6
v 0.3 0.8 -0.6
v 0.4 0.7 -0.6
v 0.4 0.8 -0.6
v 1 0.7 -0.6
v 1 0.8 -0.6
v 1.1 0.6 -0.6
v 1.1 0.7 -0.6
v 1.1 0.8 -0.6
v 1.2 0.6 -0.6
v 1.2 0.7 -0.6
v 0.4 0.8 -0.7
v 0.4 0.9 -0.7
v 0.5 0.8 -0.7
v 0.5 0.9 -0.7
v 0.9 0.8 -0.7
v 0.9 0.9 -0.7
v 1 0.8 -0.7
v 1 0.9 -0.7
v 0.6 0.7 -0.1
v 0.6 0.8 -0.1
v 0.8 0.7 -0.1
v 0.8 0.8 -0.1
v 0.4 0.8 -1.2
v 0.4 0.9 -1.2
v 0.5 0.8 -1.2
v 0.5 0.9 -1.2
v 0.9 0.8 -1.2
v 0.9 0.9 -1.2
v 1 0.8 -1.2
v 1 0.9 -1.2
v 0.3 0.7 -1.3
v 0.3 0.8 -1.3
v 0.4 0.7 -1.3
v 0.4 0.8 -1.3
v 0.5 0.8 -1.3
v 0.5 0.9 -1.3
v 0.9 0.8 -1.3
v 0.9 0.9 -1.3
v 1 0.7 -1.3
v 1 0.8 -1.3
v 1.1 0.7 -1.3
v 1.1 0.8 -1.3
v 0.4 0.7 -1.4
v 0.4 0.8 -1.4
v 0.5 0.7 -1.4
v 0.5 0.8 -1.4
v 0.9 0.7 -1.4
v 0.9 0.8 -1.4
v 1 0.7 -1.4
v 1 0.8 -1.4
v 0.2 0.6 -1.5
v 0.2 0.7 -1.5
v 0.3 0.6 -1.5
v 0.3 0.7 -1.5
v 0.4 0.6 -1.5
v 0.4 0.7 -1.5
v 0.5 0.7 -1.5
v 0.5 0.8 -1.5
v 0.9 0.7 -1.5
v 0.9 0.8 -1.5
v 1 0.6 -1.5
v 1 0.7 -1.5
v 1.1 0.6 -1.5
v 1.1 0.7 -1.5
v 1.2 0.6 -1.5
v 1.2 0.7 -1.5
v 0.4 0.6 -1.6
v 0.4 0.7 -1.6
v 0.6 0.6 -1.6
v 0.6 0.7 -1.6
v 0.8 0.6 -1.6
v 0.8 0.7 -1.6
v 1 0.6 -1.6
v 1 0.7 -1.6
v 0.6 0.6 -1.7
v 0.6 0.7 -1.7
v 0.8 0.6 -1.7
v 0.8 0.7 -1.7
v 0.4 0.6 0
v 1 0.6 0
v 0.5 0.6 -0.1
v 0.6 0.6 -0.1
v 0.8 0.6 -0.1
v 0.9 0.6 -0.1
v 0.6 0.6 -0.2
v 0.8 0.6 -0.2
v 0.4 0.6 -0.3
v 0.5 0.6 -0.3
v 0.9 0.6 -0.3
v 1 0.6 -0.3
v 0.3 0.6 -0.4
v 0.4 0.6 -0.4
v 0.5 0.6 -0.4
v 0.9 0.6 -0.4
v 1 0.6 -0.4
v 1.1 0.6 -0.4
v 0.2 0.6 -0.6
v 0.3 0.6 -0.6
v 0.4 0.6 -0.6
v 1 0.6 -0.6
v 1.1 0.6 -0.6
v 1.2 0.6 -0.6
v 0.2 0.6 -0.8
v 0.3 0.6 -0.8
v 1.1 0.6 -0.8
v 1.2 0.6 -0.8
v 0.2 0.6 -1.1
v 0.3 0.6 -1.1
v 1.1 0.6 -1.1
v 1.2 0.6 -1.1
v 0.2 0.6 -1.3
v 0.4 0.6 -1.3
v 1 0.6 -1.3
v 1.2 0.6 -1.3
v 0.3 0.6 -1.4
v 0.4 0.6 -1.4
v 0.5 0.6 -1.4
v 0.9 0.6 -1.4
v 1 0.6 -1.4
v 1.1 0.6 -1.4
v 0.2 0.6 -1.5
v 0.3 0.6 -1.5
v 0.4 0.6 -1.5
v 0.5 0.6 -1.5
v 0.9 0.6 -1.5
v 1 0.6 -1.5
v 1.1 0.6 -1.5
v 1.2 0.6 -1.5
v 0.4 0.6 -1.6
v 0.6 0.6 -1.6
v 0.8 0.6 -1.6
v 1 0.6 -1.6
v 0.6 0.6 -1.7
v 0.8 0.6 -1.7
v 0.4 0.7 0
v 0.5 0.7 0
v 0.9 0.7 0
v 1 0.7 0
v 0.6 0.7 -0.1
v 0.8 0.7 -0.1
v 0.6 0.7 -0.2
v 0.8 0.7 -0.2
v 0.4 0.7 -0.3
v 0.5 0.7 -0.3
v 0.9 0.7 -0.3
v 1 0.7 -0.3
v 0.3 0.7 -0.4
v 0.4 0.7 -0.4
v 0.5 0.7 -0.4
v 0.9 0.7 -0.4
v 1 0.7 -0.4
v 1.1 0.7 -0.4
v 0.2 0.7 -0.6
v 0.3 0.7 -0.6
v 0.4 0.7 -0.6
v 1 0.7 -0.6
v 1.1 0.7 -0.6
v 1.2 0.7 -0.6
v 0.3 0.7 -0.7
v 1.1 0.7 -0.7
v 0.2 0.7 -0.8
v 0.3 0.7 -0.8
v 1.1 0.7 -0.8
v 1.2 0.7 -0.8
v 0.3 0.7 -0.9
v 1.1 0.7 -0.9
v 0.3 0.7 -1
v 1.1 0.7 -1
v 0.2 0.7 -1.1
v 0.3 0.7 -1.1
v 1.1 0.7 -1.1
v 1.2 0.7 -1.1
v 0.3 0.7 -1.2
v 1.1 0.7 -1.2
v 0.2 0.7 -1.3
v 0.3 0.7 -1.3
v 0.4 0.7 -1.3
v 1 0.7 -1.3
v 1.1 0.7 -1.3
v 1.2 0.7 -1.3
v 0.3 0.7 -1.4
v 0.4 0.7 -1.4
v 0.5 0.7 -1.4
v 0.9 0.7 -1.4
v 1 0.7 -1.4
v 1.1 0.7 -1.4
v 0.2 0.7 -1.5
v 0.3 0.7 -1.5
v 0.4 0.7 -1.5
v 0.5 0.7 -1.5
v 0.9 0.7 -1.5
v 1 0.7 -1.5
v 1.1 0.7 -1.5
v 1.2 0.7 -1.5
v 0.4 0.7 -1.6
v 0.6 0.7 -1.6
v 0.8 0.7 -1.6
v 1 0.7 -1.6
v 0.6 0.7 -1.7
v 0.8 0.7 -1.7
v 0.5 0.8 0
v 0.9 0.8 0
v 0.6 0.8 -0.1
v 0.8 0.8 -0.1
v 0.6 0.8 -0.2
v 0.8 0.8 -0.2
v 0.5 0.8 -0.3
v 0.9 0.8 -0.3
v 0.4 0.8 -0.4
v 0.5 0.8 -0.4
v 0.9 0.8 -0.4
v 1 0.8 -0.4
v 0.3 0.8 -0.6
v 0.4 0.8 -0.6
v 0.5 0.8 -0.6
v 0.9 0.8 -0.6
v 1 0.8 -0.6
v 1.1 0.8 -0.6
v 0.3 0.8 -0.7
v 0.4 0.8 -0.7
v 0.5 0.8 -0.7
v 0.9 0.8 -0.7
v 1 0.8 -0.7
v 1.1 0.8 -0.7
v 0.4 0.8 -0.8
v 1 0.8 -0.8
v 0.3 0.8 -0.9
v 0.4 0.8 -0.9
v 1 0.8 -0.9
v 1.1 0.8 -0.9
v 0.3 0.8 -1
v 0.4 0.8 -1
v 1 0.8 -1
v 1.1 0.8 -1
v 0.4 0.8 -1.1
v 1 0.8 -1.1
v 0.3 0.8 -1.2
v 0.4 0.8 -1.2
v 0.5 0.8 -1.2
v 0.9 0.8 -1.2
v 1 0.8 -1.2
v 1.1 0.8 -1.2
v 0.3 0.8 -1.3
v 0.4 0.8 -1.3
v 0.5 0.8 -1.3
v 0.9 0.8 -1.3
v 1 0.8 -1.3
v 1.1 0.8 -1.3
v 0.4 0.8 -1.4
v 0.5 0.8 -1.4
v 0.9 0.8 -1.4
v 1 0.8 -1.4
v 0.5 0.8 -1.5
v 0.9 0.8 -1.5
v 0.5 0.9 -0.3
v 0.9 0.9 -0.3
v 0.4 0.9 -0.7
v 0.5 0.9 -0.7
v 0.9 0.9 -0.7
v 1 0.9 -0.7
v 0.4 0.9 -0.8
v 0.5 0.9 -0.8
v 0.9 0.9 -0.8
v 1 0.9 -0.8
v 0.4 0.9 -1.1
v 0.5 0.9 -1.1
v 0.9 0.9 -1.1
v 1 0.9 -1.1
v 0.4 0.9 -1.2
v 0.5 0.9 -1.2
v 0.9 0.9 -1.2
v 1 0.9 -1.2
v 0.5 0.9 -1.3
v 0.9 0.9 -1.3

# faces
f 6/3/1 2/3/1 1/3/1
f 7/2/1 3/2/1 2/2/1
f 7/3/1 2/3/1 6/3/1
f 8/3/1 4/3/1 3/3/1
f 8/2/1 3/2/1 7/2/1
f 9/1/1 5/1/1 4/1/1
f 9/3/1 4/3/1 8/3/1
f 10/1/1 5/1/1 9/1/1
f 13/1/1 12/1/1 11/1/1
f 14/1/1 12/1/1 13/1/1
f 22/3/1 15/3/1 14/3/1
f 23/2/1 16/2/1 15/2/1
f 23/3/1 15/3/1 22/3/1
f 23/2/1 17/2/1 16/2/1
f 24/4/1 18/4/1 17/4/1
f 24/2/1 17/2/1 23/2/1
f 25/3/1 20/3/1 19/3/1
f 25/4/1 18/4/1 24/4/1
f 25/3/1 19/3/1 18/3/1
f 26/1/1 21/1/1 20/1/1
f 26/3/1 20/3/1 25/3/1
f 27/1/1 21/1/1 26/1/1
f 33/5/1 29/5/1 28/5/1
f 34/1/1 30/1/1 29/1/1
f 34/5/1 29/5/1 33/5/1
f 35/1/1 30/1/1 34/1/1
f 39/2/1 32/2/1 31/2/1
f 40/2/1 32/2/1 39/2/1
f 41/1/1 36/1/1 35/1/1
f 42/1/1 36/1/1 41/1/1
f 49/2/1 38/2/1 37/2/1
f 50/2/1 38/2/1 49/2/1
f 51/2/1 44/2/1 43/2/1
f 52/3/1 45/3/1 44/3/1
f 52/2/1 44/2/1 51/2/1
f 52/3/1 46/3/1 45/3/1
f 52/3/1 47/3/1 46/3/1
f 53/1/1 48/1/1 47/1/1
f 53/3/1 47/3/1 52/3/1
f 54/1/1 48/1/1 53/1/1
f 60/5/1 56/5/1 55/5/1
f 60/5/1 57/5/1 56/5/1
f 61/5/1 57/5/1 60/5/1
f 62/5/1 57/5/1 61/5/1
f 67/3/1 59/3/1 58/3/1
f 68/3/1 59/3/1 67/3/1
f 69/1/1 62/1/1 61/1/1
f 69/1/1 63/1/1 62/1/1
f 69/1/1 64/1/1 63/1/1
f 70/1/1 64/1/1 69/1/1
f 71/3/1 66/3/1 65/3/1
f 72/3/1 66/3/1 71/3/1
f 75/2/1 74/2/1 73/2/1
f 76/2/1 74/2/1 75/2/1
f 79/5/1 78/5/1 77/5/1
f 80/5/1 78/5/1 79/5/1
f 81/5/2 82/5/2 83/5/2
f 83/5/2 82/5/2 84/5/2
f 85/2/2 86/2/2 87/2/2
f 87/2/2 86/2/2 88/2/2
f 89/5/2 90/5/2 94/5/2
f 90/5/2 91/5/2 94/5/2
f 94/5/2 91/5/2 95/5/2
f 95/5/2 91/5/2 96/5/2
f 92/3/2 93/3/2 101/3/2
f 101/3/2 93/3/2 102/3/2
f 95/1/2 96/1/2 103/1/2
f 96/1/2 97/1/2 103/1/2
f 97/1/2 98/1/2 103/1/2
f 103/1/2 98/1/2 104/1/2
f 99/3/2 100/3/2 105/3/2
f 105/3/2 100/3/2 106/3/2
f 107/5/2 108/5/2 112/5/2
f 108/1/2 109/1/2 113/1/2
f 112/5/2 108/5/2 113/5/2
f 113/1/2 109/1/2 114/1/2
f 110/2/2 111/2/2 118/2/2
f 118/2/2 111/2/2 119/2/2
f 114/1/2 115/1/2 120/1/2
f 120/1/2 115/1/2 121/1/2
f 116/2/2 117/2/2 128/2/2
f 128/2/2 117/2/2 129/2/2
f 122/2/2 123/2/2 130/2/2
f 123/3/2 124/3/2 131/3/2
f 130/2/2 123/2/2 131/2/2
f 124/3/2 125/3/2 131/3/2
f 125/3/2 126/3/2 131/3/2
f 126/1/2 127/1/2 132/1/2
f 131/3/2 126/3/2 132/3/2
f 132/1/2 127/1/2 133/1/2
f 134/1/2 135/1/2 136/1/2
f 136/1/2 135/1/2 137/1/2
f 137/3/2 138/3/2 145/3/2
f 138/2/2 139/2/2 146/2/2
f 145/3/2 138/3/2 146/3/2
f 139/2/2 140/2/2 146/2/2
f 140/4/2 141/4/2 147/4/2
f 146/2/2 140/2/2 147/2/2
f 142/3/2 143/3/2 148/3/2
f 147/4/2 141/4/2 148/4/2
f 141/3/2 142/3/2 148/3/2
f 143/1/2 144/1/2 149/1/2
f 148/3/2 143/3/2 149/3/2
f 149/1/2 144/1/2 150/1/2
f 151/3/2 152/3/2 156/3/2
f 152/2/2 153/2/2 157/2/2
f 156/3/2 152/3/2 157/3/2
f 153/3/2 154/3/2 158/3/2
f 157/2/2 153/2/2 158/2/2
f 154/1/2 155/1/2 159/1/2
f 158/3/2 154/3/2 159/3/2
f 159/1/2 155/1/2 160/1/2
f 163/5/3 162/5/3 161/5/3
f 165/5/3 163/5/3 161/5/3
f 165/5/3 164/5/3 163/5/3
f 166/5/3 164/5/3 165/5/3
f 167/5/3 165/5/3 161/5/3
f 168/5/3 165/5/3 167/5/3
f 171/5/3 170/5/3 169/5/3
f 172/5/3 170/5/3 171/5/3
f 175/1/3 174/1/3 173/1/3
f 176/1/3 174/1/3 175/1/3
f 179/1/3 178/1/3 177/1/3
f 180/1/3 178/1/3 179/1/3
f 182/1/3 181/1/3 180/1/3
f 183/1/3 181/1/3 182/1/3
f 187/1/3 185/1/3 184/1/3
f 188/1/3 185/1/3 187/1/3
f 189/1/3 187/1/3 186/1/3
f 190/1/3 187/1/3 189/1/3
f 193/3/3 192/3/3 191/3/3
f 194/3/3 192/3/3 193/3/3
f 196/3/3 195/3/3 194/3/3
f 197/3/3 195/3/3 196/3/3
f 201/3/3 199/3/3 198/3/3
f 202/3/3 199/3/3 201/3/3
f 203/3/3 201/3/3 200/3/3
f 204/3/3 201/3/3 203/3/3
f 207/2/3 206/2/3 205/2/3
f 208/2/3 206/2/3 207/2/3
f 211/2/3 210/2/3 209/2/3
f 212/2/3 210/2/3 211/2/3
f 213/5/4 214/5/4 215/5/4
f 215/5/4 214/5/4 216/5/4
f 217/1/4 218/1/4 219/1/4
f 219/1/4 218/1/4 220/1/4
f 221/1/4 222/1/4 223/1/4
f 223/1/4 222/1/4 224/1/4
f 225/1/4 226/1/4 227/1/4
f 227/1/4 226/1/4 228/1/4
f 229/3/4 230/3/4 231/3/4
f 231/3/4 230/3/4 232/3/4
f 233/1/4 234/1/4 235/1/4
f 235/1/4 234/1/4 236/1/4
f 237/2/4 238/2/4 239/2/4
f 239/2/4 238/2/4 240/2/4
f 241/2/4 242/2/4 243/2/4
f 243/2/4 242/2/4 244/2/4
f 245/1/4 246/1/4 247/1/4
f 247/1/4 246/1/4 248/1/4
f 247/2/4 248/2/4 249/2/4
f 249/2/4 248/2/4 250/2/4
f 251/3/4 252/3/4 253/3/4
f 253/3/4 252/3/4 254/3/4
f 255/2/4 256/2/4 257/2/4
f 257/2/4 256/2/4 258/2/4
f 257/1/4 258/1/4 259/1/4
f 259/1/4 258/1/4 260/1/4
f 261/2/4 262/2/4 263/2/4
f 263/2/4 262/2/4 264/2/4
f 265/2/4 266/2/4 267/2/4
f 267/2/4 266/2/4 268/2/4
f 269/2/4 270/2/4 271/2/4
f 271/2/4 270/2/4 272/2/4
f 275/5/5 274/5/5 273/5/5
f 276/5/5 274/5/5 275/5/5
f 277/5/5 274/5/5 276/5/5
f 278/5/5 274/5/5 277/5/5
f 279/3/5 276/3/5 275/3/5
f 279/5/5 277/5/5 276/5/5
f 280/3/5 278/3/5 277/3/5
f 280/5/5 277/5/5 279/5/5
f 281/5/5 275/5/5 273/5/5
f 282/3/5 279/3/5 275/3/5
f 282/5/5 275/5/5 281/5/5
f 282/3/5 280/3/5 279/3/5
f 283/3/5 278/3/5 280/3/5
f 283/3/5 280/3/5 282/3/5
f 283/5/5 274/5/5 278/5/5
f 284/5/5 274/5/5 283/5/5
f 286/1/5 282/1/5 281/1/5
f 287/3/5 283/3/5 282/3/5
f 287/1/5 282/1/5 286/1/5
f 288/1/5 284/1/5 283/1/5
f 288/3/5 283/3/5 287/3/5
f 289/1/5 284/1/5 288/1/5
f 292/1/5 286/1/5 285/1/5
f 293/3/5 289/3/5 288/3/5
f 293/3/5 287/3/5 286/3/5
f 293/1/5 286/1/5 292/1/5
f 293/3/5 288/3/5 287/3/5
f 294/1/5 290/1/5 289/1/5
f 294/3/5 289/3/5 293/3/5
f 295/1/5 290/1/5 294/1/5
f 297/3/5 292/3/5 291/3/5
f 297/3/5 296/3/5 295/3/5
f 297/3/5 295/3/5 294/3/5
f 297/3/5 294/3/5 293/3/5
f 297/3/5 293/3/5 292/3/5
f 298/3/5 296/3/5 297/3/5
f 299/3/5 296/3/5 298/3/5
f 300/3/5 296/3/5 299/3/5
f 301/2/5 298/2/5 297/2/5
f 302/3/5 299/3/5 298/3/5
f 302/2/5 298/2/5 301/2/5
f 303/2/5 300/2/5 299/2/5
f 303/3/5 299/3/5 302/3/5
f 304/2/5 300/2/5 303/2/5
f 305/3/5 302/3/5 301/3/5
f 305/3/5 303/3/5 302/3/5
f 305/3/5 304/3/5 303/3/5
f 306/3/5 304/3/5 305/3/5
f 307/3/5 304/3/5 306/3/5
f 308/3/5 304/3/5 307/3/5
f 309/1/5 306/1/5 305/1/5
f 310/3/5 307/3/5 306/3/5
f 310/1/5 306/1/5 309/1/5
f 311/3/5 307/3/5 310/3/5
f 312/3/5 307/3/5 311/3/5
f 313/1/5 308/1/5 307/1/5
f 313/3/5 307/3/5 312/3/5
f 314/1/5 308/1/5 313/1/5
f 315/1/5 309/1/5 305/1/5
f 316/2/5 310/2/5 309/2/5
f 316/1/5 309/1/5 315/1/5
f 316/2/5 311/2/5 310/2/5
f 317/2/5 311/2/5 316/2/5
f 318/3/5 312/3/5 311/3/5
f 318/2/5 311/2/5 317/2/5
f 319/2/5 314/2/5 313/2/5
f 319/3/5 312/3/5 318/3/5
f 319/2/5 313/2/5 312/2/5
f 320/2/5 314/2/5 319/2/5
f 321/1/5 308/1/5 314/1/5
f 321/2/5 314/2/5 320/2/5
f 322/1/5 308/1/5 321/1/5
f 323/2/5 320/2/5 319/2/5
f 323/2/5 319/2/5 318/2/5
f 323/2/5 318/2/5 317/2/5
f 324/2/5 320/2/5 323/2/5
f 325/2/5 320/2/5 324/2/5
f 326/2/5 320/2/5 325/2/5
f 327/2/5 325/2/5 324/2/5
f 328/2/5 325/2/5 327/2/5
f 333/5/6 334/5/6 335/5/6
f 335/5/6 334/5/6 336/5/6
f 329/5/6 330/5/6 337/5/6
f 337/5/6 330/5/6 338/5/6
f 331/5/6 332/5/6 339/5/6
f 339/5/6 332/5/6 340/5/6
f 337/1/6 338/1/6 342/1/6
f 342/1/6 338/1/6 343/1/6
f 339/1/6 340/1/6 344/1/6
f 344/1/6 340/1/6 345/1/6
f 341/1/6 342/1/6 348/1/6
f 348/1/6 342/1/6 349/1/6
f 345/1/6 346/1/6 350/1/6
f 350/1/6 346/1/6 351/1/6
f 347/3/6 348/3/6 353/3/6
f 351/3/6 352/3/6 354/3/6
f 347/3/6 353/3/6 355/3/6
f 355/3/6 353/3/6 356/3/6
f 354/3/6 352/3/6 357/3/6
f 357/3/6 352/3/6 358/3/6
f 355/2/6 356/2/6 359/2/6
f 357/2/6 358/2/6 360/2/6
f 355/2/6 359/2/6 361/2/6
f 360/2/6 358/2/6 362/2/6
f 355/2/6 361/2/6 363/2/6
f 363/2/6 361/2/6 364/2/6
f 362/2/6 358/2/6 365/2/6
f 365/2/6 358/2/6 366/2/6
f 363/3/6 364/3/6 367/3/6
f 365/3/6 366/3/6 368/3/6
f 363/3/6 367/3/6 369/3/6
f 369/3/6 367/3/6 370/3/6
f 368/3/6 366/3/6 373/3/6
f 373/3/6 366/3/6 374/3/6
f 370/1/6 371/1/6 375/1/6
f 369/1/6 370/1/6 375/1/6
f 375/1/6 371/1/6 376/1/6
f 373/1/6 374/1/6 379/1/6
f 372/1/6 373/1/6 379/1/6
f 379/1/6 374/1/6 380/1/6
f 369/1/6 375/1/6 381/1/6
f 376/2/6 377/2/6 382/2/6
f 381/1/6 375/1/6 382/1/6
f 375/2/6 376/2/6 382/2/6
f 382/2/6 377/2/6 383/2/6
f 383/2/6 377/2/6 384/2/6
f 379/2/6 380/2/6 385/2/6
f 378/2/6 379/2/6 385/2/6
f 385/2/6 380/2/6 386/2/6
f 380/1/6 374/1/6 387/1/6
f 386/2/6 380/2/6 387/2/6
f 387/1/6 374/1/6 388/1/6
f 383/2/6 384/2/6 389/2/6
f 385/2/6 386/2/6 389/2/6
f 384/2/6 385/2/6 389/2/6
f 389/2/6 386/2/6 390/2/6
f 390/2/6 386/2/6 391/2/6
f 391/2/6 386/2/6 392/2/6
f 390/2/6 391/2/6 393/2/6
f 393/2/6 391/2/6 394/2/6
f 395/5/6 396/5/6 397/5/6
f 397/5/6 396/5/6 398/5/6
f 395/5/6 397/5/6 399/5/6
f 398/5/6 396/5/6 400/5/6
f 395/5/6 399/5/6 401/5/6
f 399/5/6 400/5/6 401/5/6
f 400/5/6 396/5/6 402/5/6
f 401/5/6 400/5/6 402/5/6
f 403/1/6 404/1/6 408/1/6
f 408/1/6 404/1/6 409/1/6
f 405/1/6 406/1/6 410/1/6
f 410/1/6 406/1/6 411/1/6
f 408/3/6 409/3/6 413/3/6
f 407/3/6 408/3/6 413/3/6
f 413/3/6 409/3/6 414/3/6
f 414/3/6 409/3/6 415/3/6
f 411/3/6 412/3/6 416/3/6
f 410/3/6 411/3/6 416/3/6
f 416/3/6 412/3/6 417/3/6
f 417/3/6 412/3/6 418/3/6
f 413/2/6 414/2/6 419/2/6
f 417/2/6 418/2/6 420/2/6
f 413/2/6 419/2/6 421/2/6
f 421/2/6 419/2/6 422/2/6
f 420/2/6 418/2/6 423/2/6
f 423/2/6 418/2/6 424/2/6
f 421/4/6 422/4/6 425/4/6
f 425/4/6 422/4/6 426/4/6
f 423/4/6 424/4/6 427/4/6
f 427/4/6 424/4/6 428/4/6
f 425/3/6 426/3/6 429/3/6
f 427/3/6 428/3/6 430/3/6
f 425/3/6 429/3/6 431/3/6
f 431/3/6 429/3/6 432/3/6
f 430/3/6 428/3/6 435/3/6
f 435/3/6 428/3/6 436/3/6
f 431/1/6 432/1/6 437/1/6
f 432/2/6 433/2/6 438/2/6
f 437/1/6 432/1/6 438/1/6
f 438/2/6 433/2/6 439/2/6
f 434/2/6 435/2/6 440/2/6
f 435/1/6 436/1/6 441/1/6
f 440/2/6 435/2/6 441/2/6
f 441/1/6 436/1/6 442/1/6
f 438/2/6 439/2/6 443/2/6
f 439/3/6 440/3/6 444/3/6
f 443/2/6 439/2/6 444/2/6
f 440/2/6 441/2/6 445/2/6
f 444/3/6 440/3/6 445/3/6
f 445/2/6 441/2/6 446/2/6
f 444/3/6 445/3/6 447/3/6
f 447/3/6 445/3/6 448/3/6
f 449/1/6 450/1/6 452/1/6
f 452/1/6 450/1/6 453/1/6
f 451/2/6 452/2/6 455/2/6
f 452/1/6 453/1/6 456/1/6
f 455/2/6 452/2/6 456/2/6
f 453/2/6 454/2/6 457/2/6
f 456/1/6 453/1/6 457/1/6
f 457/2/6 454/2/6 458/2/6
f 455/3/6 456/3/6 459/3/6
f 456/1/6 457/1/6 460/1/6
f 459/3/6 456/3/6 460/3/6
f 457/3/6 458/3/6 461/3/6
f 460/1/6 457/1/6 461/1/6
f 461/3/6 458/3/6 462/3/6
f 459/1/6 460/1/6 463/1/6
f 460/3/6 461/3/6 464/3/6
f 463/1/6 460/1/6 464/1/6
f 461/1/6 462/1/6 465/1/6
f 464/3/6 461/3/6 465/3/6
f 465/1/6 462/1/6 466/1/6
f 464/3/6 465/3/6 467/3/6
f 467/3/6 465/3/6 468/3/6
