# MagicaVoxel @ Ephtracy

# group
o 

# material
mtllib car-5.mtl
usemtl palette

# normals
vn -1 0 0
vn 1 0 0
vn 0 0 1
vn 0 0 -1
vn 0 -1 0
vn 0 1 0

# texcoords
vt 0.427734 0.5
vt 0.689453 0.5
vt 0.751953 0.5
vt 0.916016 0.5
vt 0.994141 0.5

# verts
v -0.1 0.1 -2.1
v -0.1 0.1 -2.4
v -0.1 0.2 -2.1
v -0.1 0.2 -2.4
v -0.1 0.5 -1.8
v -0.1 0.5 -2
v -0.1 0.5 -2.1
v -0.1 0.6 -1.8
v -0.1 0.6 -2
v -0.1 0.6 -2.1
v 0 0.1 -2.4
v 0 0.1 -2.5
v 0 0.2 -2.1
v 0 0.2 -2.2
v 0 0.2 -2.4
v 0 0.2 -2.5
v 0 0.4 -2
v 0 0.4 -2.1
v 0 0.4 -2.2
v 0 0.5 -2
v 0 0.5 -2.1
v 0 0.5 -2.2
v 0.1 0.1 -2.5
v 0.1 0.1 -2.6
v 0.1 0.2 -2.2
v 0.1 0.2 -2.3
v 0.1 0.2 -2.5
v 0.1 0.2 -2.6
v 0.1 0.3 -2.2
v 0.1 0.3 -2.3
v 0.1 0.4 -2.2
v 0.1 0.4 -2.3
v 0.2 0.2 -2.3
v 0.2 0.2 -2.4
v 0.2 0.3 -2.3
v 0.2 0.3 -2.4
v 0.2 0.4 -2.3
v 0.2 0.4 -2.4
v 0.3 0.2 -2.4
v 0.3 0.2 -2.5
v 0.3 0.3 -2.4
v 0.3 0.3 -2.5
v 0.5 0.3 -2.4
v 0.5 0.3 -2.5
v 0.5 0.4 -2.2
v 0.5 0.4 -2.3
v 0.5 0.4 -2.4
v 0.5 0.4 -2.5
v 0.5 0.5 -2.2
v 0.5 0.5 -2.3
v 0.6 0.4 -2.3
v 0.6 0.4 -2.4
v 0.6 0.5 -2.3
v 0.6 0.5 -2.4
v 0.9 0.2 -2.4
v 0.9 0.2 -2.5
v 0.9 0.3 -2.4
v 0.9 0.3 -2.5
v 1.1 0.2 -2.3
v 1.1 0.2 -2.4
v 1.1 0.3 -2.3
v 1.1 0.3 -2.4
v 1.2 0.2 -2.1
v 1.2 0.2 -2.3
v 1.2 0.3 -2.1
v 1.2 0.3 -2.2
v 1.2 0.3 -2.3
v 1.2 0.5 -1.8
v 1.2 0.5 -2
v 1.2 0.5 -2.1
v 1.2 0.6 -1.8
v 1.2 0.6 -2
v 1.2 0.6 -2.1
v 1.3 0.3 -2.1
v 1.3 0.3 -2.2
v 1.3 0.4 -2
v 1.3 0.4 -2.1
v 1.3 0.4 -2.2
v 1.3 0.5 -2
v 1.3 0.5 -2.1
v 0.1 0.3 -2.1
v 0.1 0.3 -2.2
v 0.1 0.4 -2
v 0.1 0.4 -2.1
v 0.1 0.4 -2.2
v 0.1 0.5 -2
v 0.1 0.5 -2.1
v 0.2 0.2 -2.1
v 0.2 0.2 -2.3
v 0.2 0.3 -2.1
v 0.2 0.3 -2.2
v 0.2 0.3 -2.3
v 0.2 0.5 -1.8
v 0.2 0.5 -2
v 0.2 0.5 -2.1
v 0.2 0.6 -1.8
v 0.2 0.6 -2
v 0.2 0.6 -2.1
v 0.3 0.2 -2.3
v 0.3 0.2 -2.4
v 0.3 0.3 -2.3
v 0.3 0.3 -2.4
v 0.5 0.2 -2.4
v 0.5 0.2 -2.5
v 0.5 0.3 -2.4
v 0.5 0.3 -2.5
v 0.8 0.4 -2.3
v 0.8 0.4 -2.4
v 0.8 0.5 -2.3
v 0.8 0.5 -2.4
v 0.9 0.3 -2.4
v 0.9 0.3 -2.5
v 0.9 0.4 -2.2
v 0.9 0.4 -2.3
v 0.9 0.4 -2.4
v 0.9 0.4 -2.5
v 0.9 0.5 -2.2
v 0.9 0.5 -2.3
v 1.1 0.2 -2.4
v 1.1 0.2 -2.5
v 1.1 0.3 -2.4
v 1.1 0.3 -2.5
v 1.2 0.2 -2.3
v 1.2 0.2 -2.4
v 1.2 0.3 -2.3
v 1.2 0.3 -2.4
v 1.2 0.4 -2.3
v 1.2 0.4 -2.4
v 1.3 0.1 -2.5
v 1.3 0.1 -2.6
v 1.3 0.2 -2.2
v 1.3 0.2 -2.3
v 1.3 0.2 -2.5
v 1.3 0.2 -2.6
v 1.3 0.3 -2.2
v 1.3 0.3 -2.3
v 1.3 0.4 -2.2
v 1.3 0.4 -2.3
v 1.4 0.1 -2.4
v 1.4 0.1 -2.5
v 1.4 0.2 -2.1
v 1.4 0.2 -2.2
v 1.4 0.2 -2.4
v 1.4 0.2 -2.5
v 1.4 0.4 -2
v 1.4 0.4 -2.1
v 1.4 0.4 -2.2
v 1.4 0.5 -2
v 1.4 0.5 -2.1
v 1.4 0.5 -2.2
v 1.5 0.1 -2.1
v 1.5 0.1 -2.4
v 1.5 0.2 -2.1
v 1.5 0.2 -2.4
v 1.5 0.5 -1.8
v 1.5 0.5 -2
v 1.5 0.5 -2.1
v 1.5 0.6 -1.8
v 1.5 0.6 -2
v 1.5 0.6 -2.1
v -0.1 0.5 -1.8
v -0.1 0.6 -1.8
v 0.2 0.5 -1.8
v 0.2 0.6 -1.8
v 1.2 0.5 -1.8
v 1.2 0.6 -1.8
v 1.5 0.5 -1.8
v 1.5 0.6 -1.8
v 0 0.4 -2
v 0 0.5 -2
v 0.1 0.4 -2
v 0.1 0.5 -2
v 1.3 0.4 -2
v 1.3 0.5 -2
v 1.4 0.4 -2
v 1.4 0.5 -2
v -0.1 0.1 -2.1
v -0.1 0.2 -2.1
v 0 0.2 -2.1
v 0 0.4 -2.1
v 0.1 0.3 -2.1
v 0.1 0.4 -2.1
v 0.1 0.5 -2.1
v 0.2 0.2 -2.1
v 0.2 0.3 -2.1
v 0.2 0.5 -2.1
v 0.3 0.4 -2.1
v 0.3 0.5 -2.1
v 1.1 0.4 -2.1
v 1.1 0.5 -2.1
v 1.2 0.2 -2.1
v 1.2 0.3 -2.1
v 1.2 0.5 -2.1
v 1.3 0.3 -2.1
v 1.3 0.4 -2.1
v 1.3 0.5 -2.1
v 1.4 0.2 -2.1
v 1.4 0.4 -2.1
v 1.5 0.1 -2.1
v 1.5 0.2 -2.1
v 0.1 0.3 -2.2
v 0.1 0.4 -2.2
v 0.2 0.3 -2.2
v 0.2 0.4 -2.2
v 0.3 0.3 -2.2
v 0.3 0.4 -2.2
v 1.1 0.3 -2.2
v 1.1 0.4 -2.2
v 1.2 0.3 -2.2
v 1.2 0.4 -2.2
v 1.3 0.3 -2.2
v 1.3 0.4 -2.2
v 0.2 0.2 -2.3
v 0.2 0.3 -2.3
v 0.3 0.2 -2.3
v 0.3 0.3 -2.3
v 1.1 0.2 -2.3
v 1.1 0.3 -2.3
v 1.2 0.2 -2.3
v 1.2 0.3 -2.3
v 0.3 0.2 -2.4
v 0.3 0.3 -2.4
v 0.5 0.2 -2.4
v 0.5 0.3 -2.4
v 0.9 0.2 -2.4
v 0.9 0.3 -2.4
v 1.1 0.2 -2.4
v 1.1 0.3 -2.4
v -0.1 0.5 -2.1
v -0.1 0.6 -2.1
v 0 0.5 -2.1
v 0.1 0.5 -2.1
v 0.1 0.6 -2.1
v 0.2 0.5 -2.1
v 0.2 0.6 -2.1
v 1.2 0.5 -2.1
v 1.2 0.6 -2.1
v 1.3 0.5 -2.1
v 1.3 0.6 -2.1
v 1.4 0.5 -2.1
v 1.5 0.5 -2.1
v 1.5 0.6 -2.1
v 0 0.2 -2.2
v 0 0.4 -2.2
v 0 0.5 -2.2
v 0.1 0.2 -2.2
v 0.1 0.3 -2.2
v 0.1 0.4 -2.2
v 0.1 0.5 -2.2
v 0.2 0.4 -2.2
v 0.3 0.4 -2.2
v 0.3 0.5 -2.2
v 0.5 0.4 -2.2
v 0.5 0.5 -2.2
v 0.9 0.4 -2.2
v 0.9 0.5 -2.2
v 1.1 0.4 -2.2
v 1.1 0.5 -2.2
v 1.2 0.4 -2.2
v 1.3 0.2 -2.2
v 1.3 0.3 -2.2
v 1.3 0.4 -2.2
v 1.3 0.5 -2.2
v 1.4 0.2 -2.2
v 1.4 0.4 -2.2
v 1.4 0.5 -2.2
v 0.1 0.2 -2.3
v 0.1 0.3 -2.3
v 0.1 0.4 -2.3
v 0.2 0.2 -2.3
v 0.2 0.3 -2.3
v 0.2 0.4 -2.3
v 0.5 0.4 -2.3
v 0.5 0.5 -2.3
v 0.6 0.4 -2.3
v 0.6 0.5 -2.3
v 0.8 0.4 -2.3
v 0.8 0.5 -2.3
v 0.9 0.4 -2.3
v 0.9 0.5 -2.3
v 1.2 0.2 -2.3
v 1.2 0.3 -2.3
v 1.2 0.4 -2.3
v 1.3 0.2 -2.3
v 1.3 0.3 -2.3
v 1.3 0.4 -2.3
v -0.1 0.1 -2.4
v -0.1 0.2 -2.4
v 0 0.1 -2.4
v 0 0.2 -2.4
v 0.2 0.2 -2.4
v 0.2 0.3 -2.4
v 0.2 0.4 -2.4
v 0.3 0.2 -2.4
v 0.3 0.3 -2.4
v 0.3 0.4 -2.4
v 0.5 0.3 -2.4
v 0.5 0.4 -2.4
v 0.6 0.4 -2.4
v 0.6 0.5 -2.4
v 0.8 0.4 -2.4
v 0.8 0.5 -2.4
v 0.9 0.3 -2.4
v 0.9 0.4 -2.4
v 1.1 0.2 -2.4
v 1.1 0.3 -2.4
v 1.1 0.4 -2.4
v 1.2 0.2 -2.4
v 1.2 0.3 -2.4
v 1.2 0.4 -2.4
v 1.4 0.1 -2.4
v 1.4 0.2 -2.4
v 1.5 0.1 -2.4
v 1.5 0.2 -2.4
v 0 0.1 -2.5
v 0 0.2 -2.5
v 0.1 0.1 -2.5
v 0.1 0.2 -2.5
v 0.3 0.2 -2.5
v 0.3 0.3 -2.5
v 0.5 0.2 -2.5
v 0.5 0.3 -2.5
v 0.5 0.4 -2.5
v 0.9 0.2 -2.5
v 0.9 0.3 -2.5
v 0.9 0.4 -2.5
v 1.1 0.2 -2.5
v 1.1 0.3 -2.5
v 1.3 0.1 -2.5
v 1.3 0.2 -2.5
v 1.4 0.1 -2.5
v 1.4 0.2 -2.5
v 0.1 0.1 -2.6
v 0.1 0.2 -2.6
v 1.3 0.1 -2.6
v 1.3 0.2 -2.6
v -0.1 0.1 -2.1
v 1.5 0.1 -2.1
v -0.1 0.1 -2.4
v 0 0.1 -2.4
v 1.4 0.1 -2.4
v 1.5 0.1 -2.4
v 0 0.1 -2.5
v 0.1 0.1 -2.5
v 1.3 0.1 -2.5
v 1.4 0.1 -2.5
v 0.1 0.1 -2.6
v 1.3 0.1 -2.6
v 0.2 0.3 -2.2
v 0.3 0.3 -2.2
v 1.1 0.3 -2.2
v 1.2 0.3 -2.2
v 0.2 0.3 -2.3
v 0.3 0.3 -2.3
v 1.1 0.3 -2.3
v 1.2 0.3 -2.3
v 0.3 0.3 -2.4
v 0.5 0.3 -2.4
v 0.9 0.3 -2.4
v 1.1 0.3 -2.4
v 0.5 0.3 -2.5
v 0.9 0.3 -2.5
v 0 0.4 -2
v 0.1 0.4 -2
v 1.3 0.4 -2
v 1.4 0.4 -2
v 0 0.4 -2.1
v 0.1 0.4 -2.1
v 0.3 0.4 -2.1
v 1.1 0.4 -2.1
v 1.3 0.4 -2.1
v 1.4 0.4 -2.1
v 0.1 0.4 -2.2
v 0.2 0.4 -2.2
v 0.3 0.4 -2.2
v 1.1 0.4 -2.2
v 1.2 0.4 -2.2
v 1.3 0.4 -2.2
v -0.1 0.5 -1.8
v 0.2 0.5 -1.8
v 1.2 0.5 -1.8
v 1.5 0.5 -1.8
v -0.1 0.5 -2
v 0 0.5 -2
v 0.1 0.5 -2
v 0.2 0.5 -2
v 1.2 0.5 -2
v 1.3 0.5 -2
v 1.4 0.5 -2
v 1.5 0.5 -2
v -0.1 0.5 -2.1
v 0 0.5 -2.1
v 0.1 0.5 -2.1
v 0.2 0.5 -2.1
v 1.2 0.5 -2.1
v 1.3 0.5 -2.1
v 1.4 0.5 -2.1
v 1.5 0.5 -2.1
v -0.1 0.2 -2.1
v 0 0.2 -2.1
v 0.2 0.2 -2.1
v 1.2 0.2 -2.1
v 1.4 0.2 -2.1
v 1.5 0.2 -2.1
v 0 0.2 -2.2
v 0.1 0.2 -2.2
v 1.3 0.2 -2.2
v 1.4 0.2 -2.2
v 0.1 0.2 -2.3
v 0.2 0.2 -2.3
v 0.3 0.2 -2.3
v 1.1 0.2 -2.3
v 1.2 0.2 -2.3
v 1.3 0.2 -2.3
v -0.1 0.2 -2.4
v 0 0.2 -2.4
v 0.2 0.2 -2.4
v 0.3 0.2 -2.4
v 0.5 0.2 -2.4
v 0.9 0.2 -2.4
v 1.1 0.2 -2.4
v 1.2 0.2 -2.4
v 1.4 0.2 -2.4
v 1.5 0.2 -2.4
v 0 0.2 -2.5
v 0.1 0.2 -2.5
v 0.3 0.2 -2.5
v 0.5 0.2 -2.5
v 0.9 0.2 -2.5
v 1.1 0.2 -2.5
v 1.3 0.2 -2.5
v 1.4 0.2 -2.5
v 0.1 0.2 -2.6
v 1.3 0.2 -2.6
v 0.1 0.3 -2.1
v 0.2 0.3 -2.1
v 1.2 0.3 -2.1
v 1.3 0.3 -2.1
v 0.1 0.3 -2.2
v 0.2 0.3 -2.2
v 1.2 0.3 -2.2
v 1.3 0.3 -2.2
v 0.3 0.3 -2.4
v 0.5 0.3 -2.4
v 0.9 0.3 -2.4
v 1.1 0.3 -2.4
v 0.3 0.3 -2.5
v 0.5 0.3 -2.5
v 0.9 0.3 -2.5
v 1.1 0.3 -2.5
v 0.1 0.4 -2.2
v 0.2 0.4 -2.2
v 0.3 0.4 -2.2
v 0.5 0.4 -2.2
v 0.9 0.4 -2.2
v 1.1 0.4 -2.2
v 1.2 0.4 -2.2
v 1.3 0.4 -2.2
v 0.1 0.4 -2.3
v 0.2 0.4 -2.3
v 0.3 0.4 -2.3
v 0.5 0.4 -2.3
v 0.6 0.4 -2.3
v 0.8 0.4 -2.3
v 0.9 0.4 -2.3
v 1.1 0.4 -2.3
v 1.2 0.4 -2.3
v 1.3 0.4 -2.3
v 0.2 0.4 -2.4
v 0.3 0.4 -2.4
v 0.5 0.4 -2.4
v 0.6 0.4 -2.4
v 0.8 0.4 -2.4
v 0.9 0.4 -2.4
v 1.1 0.4 -2.4
v 1.2 0.4 -2.4
v 0.5 0.4 -2.5
v 0.9 0.4 -2.5
v 0 0.5 -2.1
v 0.1 0.5 -2.1
v 0.2 0.5 -2.1
v 0.3 0.5 -2.1
v 1.1 0.5 -2.1
v 1.2 0.5 -2.1
v 1.3 0.5 -2.1
v 1.4 0.5 -2.1
v 0 0.5 -2.2
v 0.1 0.5 -2.2
v 0.3 0.5 -2.2
v 0.5 0.5 -2.2
v 0.9 0.5 -2.2
v 1.1 0.5 -2.2
v 1.3 0.5 -2.2
v 1.4 0.5 -2.2
v 0.5 0.5 -2.3
v 0.6 0.5 -2.3
v 0.8 0.5 -2.3
v 0.9 0.5 -2.3
v 0.6 0.5 -2.4
v 0.8 0.5 -2.4
v -0.1 0.6 -1.8
v 0.2 0.6 -1.8
v 1.2 0.6 -1.8
v 1.5 0.6 -1.8
v -0.1 0.6 -2
v 0.1 0.6 -2
v 0.2 0.6 -2
v 1.2 0.6 -2
v 1.3 0.6 -2
v 1.5 0.6 -2
v -0.1 0.6 -2.1
v 0.1 0.6 -2.1
v 0.2 0.6 -2.1
v 1.2 0.6 -2.1
v 1.3 0.6 -2.1
v 1.5 0.6 -2.1

# faces
f 3/5/1 2/5/1 1/5/1
f 4/5/1 2/5/1 3/5/1
f 8/1/1 6/1/1 5/1/1
f 9/3/1 7/3/1 6/3/1
f 9/1/1 6/1/1 8/1/1
f 10/3/1 7/3/1 9/3/1
f 15/5/1 12/5/1 11/5/1
f 16/5/1 12/5/1 15/5/1
f 18/1/1 14/1/1 13/1/1
f 19/1/1 14/1/1 18/1/1
f 20/2/1 18/2/1 17/2/1
f 21/3/1 19/3/1 18/3/1
f 21/2/1 18/2/1 20/2/1
f 22/3/1 19/3/1 21/3/1
f 27/5/1 24/5/1 23/5/1
f 28/5/1 24/5/1 27/5/1
f 29/1/1 26/1/1 25/1/1
f 30/1/1 26/1/1 29/1/1
f 31/3/1 30/3/1 29/3/1
f 32/3/1 30/3/1 31/3/1
f 35/1/1 34/1/1 33/1/1
f 36/1/1 34/1/1 35/1/1
f 37/4/1 36/4/1 35/4/1
f 38/4/1 36/4/1 37/4/1
f 41/1/1 40/1/1 39/1/1
f 42/1/1 40/1/1 41/1/1
f 47/1/1 44/1/1 43/1/1
f 48/1/1 44/1/1 47/1/1
f 49/1/1 46/1/1 45/1/1
f 50/1/1 46/1/1 49/1/1
f 53/1/1 52/1/1 51/1/1
f 54/1/1 52/1/1 53/1/1
f 57/1/1 56/1/1 55/1/1
f 58/1/1 56/1/1 57/1/1
f 61/1/1 60/1/1 59/1/1
f 62/1/1 60/1/1 61/1/1
f 65/1/1 64/1/1 63/1/1
f 66/1/1 64/1/1 65/1/1
f 67/1/1 64/1/1 66/1/1
f 71/1/1 69/1/1 68/1/1
f 72/4/1 70/4/1 69/4/1
f 72/1/1 69/1/1 71/1/1
f 73/4/1 70/4/1 72/4/1
f 77/1/1 75/1/1 74/1/1
f 78/1/1 75/1/1 77/1/1
f 79/2/1 77/2/1 76/2/1
f 80/2/1 77/2/1 79/2/1
f 81/1/2 82/1/2 84/1/2
f 84/1/2 82/1/2 85/1/2
f 83/2/2 84/2/2 86/2/2
f 86/2/2 84/2/2 87/2/2
f 88/1/2 89/1/2 90/1/2
f 90/1/2 89/1/2 91/1/2
f 91/1/2 89/1/2 92/1/2
f 93/1/2 94/1/2 96/1/2
f 94/4/2 95/4/2 97/4/2
f 96/1/2 94/1/2 97/1/2
f 97/4/2 95/4/2 98/4/2
f 99/1/2 100/1/2 101/1/2
f 101/1/2 100/1/2 102/1/2
f 103/1/2 104/1/2 105/1/2
f 105/1/2 104/1/2 106/1/2
f 107/1/2 108/1/2 109/1/2
f 109/1/2 108/1/2 110/1/2
f 111/1/2 112/1/2 115/1/2
f 115/1/2 112/1/2 116/1/2
f 113/1/2 114/1/2 117/1/2
f 117/1/2 114/1/2 118/1/2
f 119/1/2 120/1/2 121/1/2
f 121/1/2 120/1/2 122/1/2
f 123/1/2 124/1/2 125/1/2
f 125/1/2 124/1/2 126/1/2
f 125/4/2 126/4/2 127/4/2
f 127/4/2 126/4/2 128/4/2
f 129/5/2 130/5/2 133/5/2
f 133/5/2 130/5/2 134/5/2
f 131/1/2 132/1/2 135/1/2
f 135/1/2 132/1/2 136/1/2
f 135/3/2 136/3/2 137/3/2
f 137/3/2 136/3/2 138/3/2
f 139/5/2 140/5/2 143/5/2
f 143/5/2 140/5/2 144/5/2
f 141/1/2 142/1/2 146/1/2
f 146/1/2 142/1/2 147/1/2
f 145/2/2 146/2/2 148/2/2
f 146/3/2 147/3/2 149/3/2
f 148/2/2 146/2/2 149/2/2
f 149/3/2 147/3/2 150/3/2
f 151/5/2 152/5/2 153/5/2
f 153/5/2 152/5/2 154/5/2
f 155/1/2 156/1/2 158/1/2
f 156/3/2 157/3/2 159/3/2
f 158/1/2 156/1/2 159/1/2
f 159/3/2 157/3/2 160/3/2
f 163/1/3 162/1/3 161/1/3
f 164/1/3 162/1/3 163/1/3
f 167/1/3 166/1/3 165/1/3
f 168/1/3 166/1/3 167/1/3
f 171/2/3 170/2/3 169/2/3
f 172/2/3 170/2/3 171/2/3
f 175/2/3 174/2/3 173/2/3
f 176/2/3 174/2/3 175/2/3
f 179/5/3 178/5/3 177/5/3
f 181/1/3 180/1/3 179/1/3
f 182/1/3 180/1/3 181/1/3
f 184/5/3 179/5/3 177/5/3
f 184/1/3 181/1/3 179/1/3
f 185/1/3 181/1/3 184/1/3
f 186/2/3 183/2/3 182/2/3
f 187/2/3 186/2/3 182/2/3
f 188/2/3 186/2/3 187/2/3
f 189/1/3 188/1/3 187/1/3
f 190/1/3 188/1/3 189/1/3
f 191/5/3 184/5/3 177/5/3
f 193/2/3 190/2/3 189/2/3
f 194/1/3 192/1/3 191/1/3
f 195/2/3 193/2/3 189/2/3
f 196/2/3 193/2/3 195/2/3
f 197/5/3 191/5/3 177/5/3
f 197/1/3 194/1/3 191/1/3
f 197/1/3 195/1/3 194/1/3
f 198/1/3 195/1/3 197/1/3
f 199/5/3 197/5/3 177/5/3
f 200/5/3 197/5/3 199/5/3
f 203/3/3 202/3/3 201/3/3
f 204/3/3 202/3/3 203/3/3
f 205/2/3 204/2/3 203/2/3
f 206/2/3 204/2/3 205/2/3
f 207/1/3 206/1/3 205/1/3
f 208/1/3 206/1/3 207/1/3
f 209/2/3 208/2/3 207/2/3
f 210/2/3 208/2/3 209/2/3
f 211/3/3 210/3/3 209/3/3
f 212/3/3 210/3/3 211/3/3
f 215/1/3 214/1/3 213/1/3
f 216/1/3 214/1/3 215/1/3
f 219/1/3 218/1/3 217/1/3
f 220/1/3 218/1/3 219/1/3
f 223/1/3 222/1/3 221/1/3
f 224/1/3 222/1/3 223/1/3
f 227/1/3 226/1/3 225/1/3
f 228/1/3 226/1/3 227/1/3
f 229/3/4 230/3/4 231/3/4
f 231/3/4 230/3/4 232/3/4
f 232/3/4 230/3/4 233/3/4
f 232/4/4 233/4/4 234/4/4
f 234/4/4 233/4/4 235/4/4
f 236/4/4 237/4/4 238/4/4
f 238/4/4 237/4/4 239/4/4
f 238/3/4 239/3/4 240/3/4
f 240/3/4 239/3/4 241/3/4
f 241/3/4 239/3/4 242/3/4
f 243/1/4 244/1/4 246/1/4
f 246/1/4 244/1/4 247/1/4
f 244/3/4 245/3/4 248/3/4
f 247/1/4 244/1/4 248/1/4
f 248/3/4 245/3/4 249/3/4
f 248/2/4 249/2/4 250/2/4
f 250/2/4 249/2/4 251/2/4
f 251/2/4 249/2/4 252/2/4
f 251/1/4 252/1/4 253/1/4
f 253/1/4 252/1/4 254/1/4
f 255/1/4 256/1/4 257/1/4
f 257/1/4 256/1/4 258/1/4
f 257/2/4 258/2/4 259/2/4
f 259/2/4 258/2/4 262/2/4
f 262/2/4 258/2/4 263/2/4
f 260/1/4 261/1/4 264/1/4
f 261/1/4 262/1/4 264/1/4
f 262/3/4 263/3/4 265/3/4
f 264/1/4 262/1/4 265/1/4
f 265/3/4 263/3/4 266/3/4
f 267/1/4 268/1/4 270/1/4
f 268/3/4 269/3/4 271/3/4
f 270/1/4 268/1/4 271/1/4
f 271/3/4 269/3/4 272/3/4
f 273/1/4 274/1/4 275/1/4
f 275/1/4 274/1/4 276/1/4
f 277/1/4 278/1/4 279/1/4
f 279/1/4 278/1/4 280/1/4
f 281/1/4 282/1/4 284/1/4
f 282/3/4 283/3/4 285/3/4
f 284/1/4 282/1/4 285/1/4
f 285/3/4 283/3/4 286/3/4
f 287/5/4 288/5/4 289/5/4
f 289/5/4 288/5/4 290/5/4
f 291/1/4 292/1/4 294/1/4
f 292/4/4 293/4/4 295/4/4
f 294/1/4 292/1/4 295/1/4
f 295/4/4 293/4/4 296/4/4
f 295/1/4 296/1/4 297/1/4
f 297/1/4 296/1/4 298/1/4
f 299/1/4 300/1/4 301/1/4
f 301/1/4 300/1/4 302/1/4
f 303/1/4 304/1/4 306/1/4
f 306/1/4 304/1/4 307/1/4
f 305/1/4 306/1/4 308/1/4
f 306/4/4 307/4/4 309/4/4
f 308/1/4 306/1/4 309/1/4
f 309/4/4 307/4/4 310/4/4
f 311/5/4 312/5/4 313/5/4
f 313/5/4 312/5/4 314/5/4
f 315/5/4 316/5/4 317/5/4
f 317/5/4 316/5/4 318/5/4
f 319/1/4 320/1/4 321/1/4
f 321/1/4 320/1/4 322/1/4
f 322/1/4 323/1/4 325/1/4
f 325/1/4 323/1/4 326/1/4
f 324/1/4 325/1/4 327/1/4
f 327/1/4 325/1/4 328/1/4
f 329/5/4 330/5/4 331/5/4
f 331/5/4 330/5/4 332/5/4
f 333/5/4 334/5/4 335/5/4
f 335/5/4 334/5/4 336/5/4
f 339/5/5 338/5/5 337/5/5
f 340/5/5 338/5/5 339/5/5
f 341/5/5 338/5/5 340/5/5
f 342/5/5 338/5/5 341/5/5
f 343/5/5 341/5/5 340/5/5
f 344/5/5 341/5/5 343/5/5
f 345/5/5 341/5/5 344/5/5
f 346/5/5 341/5/5 345/5/5
f 347/5/5 345/5/5 344/5/5
f 348/5/5 345/5/5 347/5/5
f 353/2/5 350/2/5 349/2/5
f 354/1/5 351/1/5 350/1/5
f 354/2/5 350/2/5 353/2/5
f 355/2/5 352/2/5 351/2/5
f 355/1/5 351/1/5 354/1/5
f 356/2/5 352/2/5 355/2/5
f 357/1/5 355/1/5 354/1/5
f 358/1/5 355/1/5 357/1/5
f 359/1/5 355/1/5 358/1/5
f 360/1/5 355/1/5 359/1/5
f 361/1/5 359/1/5 358/1/5
f 362/1/5 359/1/5 361/1/5
f 367/2/5 364/2/5 363/2/5
f 368/2/5 364/2/5 367/2/5
f 371/2/5 366/2/5 365/2/5
f 372/2/5 366/2/5 371/2/5
f 373/2/5 369/2/5 368/2/5
f 374/2/5 369/2/5 373/2/5
f 375/1/5 370/1/5 369/1/5
f 375/2/5 369/2/5 374/2/5
f 376/2/5 371/2/5 370/2/5
f 376/1/5 370/1/5 375/1/5
f 377/2/5 371/2/5 376/2/5
f 378/2/5 371/2/5 377/2/5
f 383/1/5 380/1/5 379/1/5
f 384/1/5 380/1/5 383/1/5
f 385/1/5 380/1/5 384/1/5
f 386/1/5 380/1/5 385/1/5
f 387/1/5 382/1/5 381/1/5
f 388/1/5 382/1/5 387/1/5
f 389/1/5 382/1/5 388/1/5
f 390/1/5 382/1/5 389/1/5
f 391/3/5 384/3/5 383/3/5
f 392/3/5 384/3/5 391/3/5
f 393/4/5 386/4/5 385/4/5
f 394/4/5 386/4/5 393/4/5
f 395/4/5 388/4/5 387/4/5
f 396/4/5 388/4/5 395/4/5
f 397/3/5 390/3/5 389/3/5
f 398/3/5 390/3/5 397/3/5
f 399/5/6 400/5/6 405/5/6
f 403/5/6 404/5/6 408/5/6
f 405/5/6 406/5/6 409/5/6
f 401/5/6 402/5/6 410/5/6
f 410/5/6 402/5/6 411/5/6
f 411/5/6 402/5/6 412/5/6
f 412/5/6 402/5/6 413/5/6
f 407/5/6 408/5/6 414/5/6
f 405/5/6 409/5/6 415/5/6
f 399/5/6 405/5/6 415/5/6
f 409/5/6 410/5/6 415/5/6
f 415/5/6 410/5/6 416/5/6
f 416/5/6 410/5/6 417/5/6
f 411/5/6 412/5/6 418/5/6
f 418/5/6 412/5/6 419/5/6
f 419/5/6 412/5/6 420/5/6
f 420/5/6 412/5/6 421/5/6
f 413/5/6 414/5/6 422/5/6
f 414/5/6 408/5/6 423/5/6
f 408/5/6 404/5/6 423/5/6
f 422/5/6 414/5/6 423/5/6
f 423/5/6 404/5/6 424/5/6
f 416/5/6 417/5/6 425/5/6
f 417/5/6 418/5/6 425/5/6
f 425/5/6 418/5/6 426/5/6
f 426/5/6 418/5/6 427/5/6
f 419/5/6 420/5/6 428/5/6
f 428/5/6 420/5/6 429/5/6
f 421/5/6 422/5/6 430/5/6
f 422/5/6 423/5/6 430/5/6
f 430/5/6 423/5/6 431/5/6
f 431/5/6 423/5/6 432/5/6
f 428/5/6 429/5/6 433/5/6
f 427/5/6 428/5/6 433/5/6
f 430/5/6 431/5/6 433/5/6
f 429/5/6 430/5/6 433/5/6
f 426/5/6 427/5/6 433/5/6
f 433/5/6 431/5/6 434/5/6
f 435/1/6 436/1/6 439/1/6
f 439/1/6 436/1/6 440/1/6
f 437/1/6 438/1/6 441/1/6
f 441/1/6 438/1/6 442/1/6
f 443/1/6 444/1/6 447/1/6
f 447/1/6 444/1/6 448/1/6
f 445/1/6 446/1/6 449/1/6
f 449/1/6 446/1/6 450/1/6
f 451/3/6 452/3/6 459/3/6
f 452/2/6 453/2/6 460/2/6
f 459/3/6 452/3/6 460/3/6
f 453/1/6 454/1/6 461/1/6
f 460/2/6 453/2/6 461/2/6
f 461/1/6 454/1/6 462/1/6
f 455/1/6 456/1/6 465/1/6
f 456/2/6 457/2/6 466/2/6
f 465/1/6 456/1/6 466/1/6
f 457/3/6 458/3/6 467/3/6
f 466/2/6 457/2/6 467/2/6
f 467/3/6 458/3/6 468/3/6
f 460/4/6 461/4/6 469/4/6
f 462/1/6 463/1/6 470/1/6
f 469/4/6 461/4/6 470/4/6
f 461/1/6 462/1/6 470/1/6
f 470/1/6 463/1/6 471/1/6
f 471/1/6 463/1/6 472/1/6
f 465/1/6 466/1/6 473/1/6
f 464/1/6 465/1/6 473/1/6
f 473/1/6 466/1/6 474/1/6
f 466/4/6 467/4/6 475/4/6
f 474/1/6 466/1/6 475/1/6
f 475/4/6 467/4/6 476/4/6
f 471/1/6 472/1/6 477/1/6
f 472/1/6 473/1/6 477/1/6
f 473/1/6 474/1/6 477/1/6
f 477/1/6 474/1/6 478/1/6
f 479/3/6 480/3/6 487/3/6
f 480/2/6 481/2/6 488/2/6
f 487/3/6 480/3/6 488/3/6
f 481/2/6 482/2/6 488/2/6
f 482/1/6 483/1/6 489/1/6
f 488/2/6 482/2/6 489/2/6
f 489/1/6 483/1/6 490/1/6
f 490/1/6 483/1/6 491/1/6
f 484/2/6 485/2/6 492/2/6
f 491/1/6 483/1/6 492/1/6
f 483/2/6 484/2/6 492/2/6
f 485/3/6 486/3/6 493/3/6
f 492/2/6 485/2/6 493/2/6
f 493/3/6 486/3/6 494/3/6
f 490/1/6 491/1/6 495/1/6
f 495/1/6 491/1/6 496/1/6
f 496/1/6 491/1/6 497/1/6
f 497/1/6 491/1/6 498/1/6
f 496/1/6 497/1/6 499/1/6
f 499/1/6 497/1/6 500/1/6
f 501/1/6 502/1/6 505/1/6
f 505/1/6 502/1/6 506/1/6
f 506/1/6 502/1/6 507/1/6
f 503/1/6 504/1/6 508/1/6
f 508/1/6 504/1/6 509/1/6
f 509/1/6 504/1/6 510/1/6
f 505/3/6 506/3/6 511/3/6
f 506/4/6 507/4/6 512/4/6
f 511/3/6 506/3/6 512/3/6
f 512/4/6 507/4/6 513/4/6
f 508/4/6 509/4/6 514/4/6
f 509/3/6 510/3/6 515/3/6
f 514/4/6 509/4/6 515/4/6
f 515/3/6 510/3/6 516/3/6
